<mxfile host="app.diagrams.net" modified="2023-10-16T08:36:41.915Z" agent="Mozilla/5.0 (X11; Linux x86_64) AppleWebKit/537.36 (KHTML, like Gecko) Chrome/117.0.0.0 Safari/537.36" etag="YuYpap-xn8NTnOKjkF-9" version="21.6.9" type="github">
  <diagram name="Page-1" id="c7558073-3199-34d8-9f00-42111426c3f3">
    <mxGraphModel dx="2192" dy="664" grid="1" gridSize="10" guides="1" tooltips="1" connect="1" arrows="1" fold="1" page="1" pageScale="1" pageWidth="826" pageHeight="1169" background="none" math="0" shadow="0">
      <root>
        <mxCell id="0" />
        <mxCell id="1" parent="0" />
        <mxCell id="KBhb0Jj_dmKSlay7C9OW-199" value="" style="rounded=0;whiteSpace=wrap;html=1;fillColor=#dae8fc;strokeColor=#6c8ebf;opacity=50;" vertex="1" parent="1">
          <mxGeometry x="-80" y="770" width="290" height="320" as="geometry" />
        </mxCell>
        <mxCell id="KBhb0Jj_dmKSlay7C9OW-177" value="&lt;font style=&quot;font-size: 16px;&quot;&gt;Sense&lt;/font&gt;" style="rounded=0;whiteSpace=wrap;html=1;fillColor=#dae8fc;strokeColor=#6c8ebf;" vertex="1" parent="1">
          <mxGeometry x="10" y="590" width="120" height="60" as="geometry" />
        </mxCell>
        <mxCell id="KBhb0Jj_dmKSlay7C9OW-178" value="&lt;font style=&quot;font-size: 16px;&quot;&gt;Plan&lt;/font&gt;" style="rounded=0;whiteSpace=wrap;html=1;fillColor=#ffe6cc;strokeColor=#d79b00;" vertex="1" parent="1">
          <mxGeometry x="353" y="590" width="120" height="60" as="geometry" />
        </mxCell>
        <mxCell id="KBhb0Jj_dmKSlay7C9OW-179" value="&lt;font style=&quot;font-size: 16px;&quot;&gt;Action&lt;/font&gt;" style="rounded=0;whiteSpace=wrap;html=1;fillColor=#f8cecc;strokeColor=#b85450;" vertex="1" parent="1">
          <mxGeometry x="660" y="590" width="120" height="60" as="geometry" />
        </mxCell>
        <mxCell id="KBhb0Jj_dmKSlay7C9OW-180" value="&lt;font style=&quot;font-size: 16px;&quot;&gt;环境信息感知&lt;/font&gt;" style="rounded=0;whiteSpace=wrap;html=1;fillColor=#dae8fc;strokeColor=#6c8ebf;" vertex="1" parent="1">
          <mxGeometry x="10" y="680" width="120" height="60" as="geometry" />
        </mxCell>
        <mxCell id="KBhb0Jj_dmKSlay7C9OW-181" value="&lt;div style=&quot;line-height: 150%;&quot; data-docx-has-block-data=&quot;false&quot; data-page-id=&quot;PsQEdelZuojstnxGwMRclEq5nUh&quot;&gt;&lt;div class=&quot;old-record-id-UTOEdsf3Foy1ImxKm3bcTJLcnuc&quot; style=&quot;&quot;&gt;&lt;strong&gt;Equipment&lt;/strong&gt;&lt;/div&gt;&lt;div class=&quot;old-record-id-UTOEdsf3Foy1ImxKm3bcTJLcnuc&quot; style=&quot;line-height: 150%;&quot;&gt;&lt;strong&gt;持有&lt;/strong&gt;&lt;strong style=&quot;background-color: initial;&quot;&gt;物品状态&lt;/strong&gt;&lt;/div&gt;&lt;/div&gt;" style="ellipse;whiteSpace=wrap;html=1;" vertex="1" parent="1">
          <mxGeometry x="-60" y="790" width="120" height="60" as="geometry" />
        </mxCell>
        <mxCell id="KBhb0Jj_dmKSlay7C9OW-182" value="" style="endArrow=classic;html=1;rounded=0;exitX=1;exitY=0.5;exitDx=0;exitDy=0;entryX=0;entryY=0.5;entryDx=0;entryDy=0;strokeWidth=3;" edge="1" parent="1" source="KBhb0Jj_dmKSlay7C9OW-177" target="KBhb0Jj_dmKSlay7C9OW-178">
          <mxGeometry width="50" height="50" relative="1" as="geometry">
            <mxPoint x="350" y="770" as="sourcePoint" />
            <mxPoint x="313" y="620" as="targetPoint" />
          </mxGeometry>
        </mxCell>
        <mxCell id="KBhb0Jj_dmKSlay7C9OW-183" value="" style="endArrow=classic;html=1;rounded=0;exitX=1;exitY=0.5;exitDx=0;exitDy=0;entryX=0;entryY=0.5;entryDx=0;entryDy=0;strokeWidth=3;" edge="1" parent="1" source="KBhb0Jj_dmKSlay7C9OW-178" target="KBhb0Jj_dmKSlay7C9OW-179">
          <mxGeometry width="50" height="50" relative="1" as="geometry">
            <mxPoint x="480" y="710" as="sourcePoint" />
            <mxPoint x="543" y="710" as="targetPoint" />
          </mxGeometry>
        </mxCell>
        <mxCell id="KBhb0Jj_dmKSlay7C9OW-184" value="&lt;div style=&quot;line-height: 150%;&quot; data-docx-has-block-data=&quot;false&quot; data-page-id=&quot;PsQEdelZuojstnxGwMRclEq5nUh&quot;&gt;&lt;div class=&quot;old-record-id-UTOEdsf3Foy1ImxKm3bcTJLcnuc&quot; style=&quot;&quot;&gt;&lt;div data-docx-has-block-data=&quot;false&quot; data-page-id=&quot;PsQEdelZuojstnxGwMRclEq5nUh&quot;&gt;&lt;div class=&quot;old-record-id-ScOXdyL53oE6Iexby0Acvt4xn4d&quot; style=&quot;&quot;&gt;&lt;strong&gt;Nearby entities&lt;/strong&gt;&lt;/div&gt;&lt;div class=&quot;old-record-id-ScOXdyL53oE6Iexby0Acvt4xn4d&quot; style=&quot;&quot;&gt;&lt;strong&gt;周围物体感知&lt;/strong&gt;&lt;/div&gt;&lt;/div&gt;&lt;span class=&quot;lark-record-clipboard&quot; data-lark-record-format=&quot;docx/text&quot; data-lark-record-data=&quot;{&amp;quot;rootId&amp;quot;:&amp;quot;PsQEdelZuojstnxGwMRclEq5nUh&amp;quot;,&amp;quot;text&amp;quot;:{&amp;quot;initialAttributedTexts&amp;quot;:{&amp;quot;text&amp;quot;:{&amp;quot;0&amp;quot;:&amp;quot;Nearby entities&amp;quot;},&amp;quot;attribs&amp;quot;:{&amp;quot;0&amp;quot;:&amp;quot;*0*1*2+f&amp;quot;}},&amp;quot;apool&amp;quot;:{&amp;quot;numToAttrib&amp;quot;:{&amp;quot;0&amp;quot;:[&amp;quot;author&amp;quot;,&amp;quot;7103759906590752771&amp;quot;],&amp;quot;1&amp;quot;:[&amp;quot;bold&amp;quot;,&amp;quot;true&amp;quot;],&amp;quot;2&amp;quot;:[&amp;quot;textHighlightBackground&amp;quot;,&amp;quot;rgba(255,246,122,0.8)&amp;quot;]},&amp;quot;nextNum&amp;quot;:3}},&amp;quot;type&amp;quot;:&amp;quot;text&amp;quot;,&amp;quot;referenceRecordMap&amp;quot;:{},&amp;quot;extra&amp;quot;:{&amp;quot;mention_page_title&amp;quot;:{},&amp;quot;external_mention_url&amp;quot;:{}},&amp;quot;isKeepQuoteContainer&amp;quot;:false,&amp;quot;isFromCode&amp;quot;:false,&amp;quot;selection&amp;quot;:[{&amp;quot;id&amp;quot;:2483,&amp;quot;type&amp;quot;:&amp;quot;text&amp;quot;,&amp;quot;selection&amp;quot;:{&amp;quot;start&amp;quot;:0,&amp;quot;end&amp;quot;:15},&amp;quot;recordId&amp;quot;:&amp;quot;ScOXdyL53oE6Iexby0Acvt4xn4d&amp;quot;}],&amp;quot;payloadMap&amp;quot;:{},&amp;quot;isCut&amp;quot;:false}&quot;&gt;&lt;/span&gt;&lt;/div&gt;&lt;/div&gt;" style="ellipse;whiteSpace=wrap;html=1;" vertex="1" parent="1">
          <mxGeometry x="80" y="870" width="120" height="60" as="geometry" />
        </mxCell>
        <mxCell id="KBhb0Jj_dmKSlay7C9OW-185" value="3D &lt;br&gt;Detection Model" style="shape=cube;whiteSpace=wrap;html=1;boundedLbl=1;backgroundOutline=1;darkOpacity=0.05;darkOpacity2=0.1;size=10;" vertex="1" parent="1">
          <mxGeometry x="80" y="980" width="120" height="80" as="geometry" />
        </mxCell>
        <mxCell id="KBhb0Jj_dmKSlay7C9OW-186" value="&lt;div style=&quot;line-height: 150%;&quot; data-docx-has-block-data=&quot;false&quot; data-page-id=&quot;PsQEdelZuojstnxGwMRclEq5nUh&quot;&gt;&lt;div class=&quot;old-record-id-UTOEdsf3Foy1ImxKm3bcTJLcnuc&quot; style=&quot;&quot;&gt;&lt;div data-docx-has-block-data=&quot;false&quot; data-page-id=&quot;PsQEdelZuojstnxGwMRclEq5nUh&quot;&gt;&lt;div class=&quot;old-record-id-ScOXdyL53oE6Iexby0Acvt4xn4d&quot; style=&quot;&quot;&gt;&lt;strong&gt;Recently seen blocks&lt;/strong&gt;&lt;/div&gt;&lt;div class=&quot;old-record-id-ScOXdyL53oE6Iexby0Acvt4xn4d&quot; style=&quot;&quot;&gt;&lt;strong&gt;感知历史数据&lt;/strong&gt;&lt;/div&gt;&lt;/div&gt;&lt;span class=&quot;lark-record-clipboard&quot; data-lark-record-format=&quot;docx/text&quot; data-lark-record-data=&quot;{&amp;quot;rootId&amp;quot;:&amp;quot;PsQEdelZuojstnxGwMRclEq5nUh&amp;quot;,&amp;quot;text&amp;quot;:{&amp;quot;initialAttributedTexts&amp;quot;:{&amp;quot;text&amp;quot;:{&amp;quot;0&amp;quot;:&amp;quot;Nearby entities&amp;quot;},&amp;quot;attribs&amp;quot;:{&amp;quot;0&amp;quot;:&amp;quot;*0*1*2+f&amp;quot;}},&amp;quot;apool&amp;quot;:{&amp;quot;numToAttrib&amp;quot;:{&amp;quot;0&amp;quot;:[&amp;quot;author&amp;quot;,&amp;quot;7103759906590752771&amp;quot;],&amp;quot;1&amp;quot;:[&amp;quot;bold&amp;quot;,&amp;quot;true&amp;quot;],&amp;quot;2&amp;quot;:[&amp;quot;textHighlightBackground&amp;quot;,&amp;quot;rgba(255,246,122,0.8)&amp;quot;]},&amp;quot;nextNum&amp;quot;:3}},&amp;quot;type&amp;quot;:&amp;quot;text&amp;quot;,&amp;quot;referenceRecordMap&amp;quot;:{},&amp;quot;extra&amp;quot;:{&amp;quot;mention_page_title&amp;quot;:{},&amp;quot;external_mention_url&amp;quot;:{}},&amp;quot;isKeepQuoteContainer&amp;quot;:false,&amp;quot;isFromCode&amp;quot;:false,&amp;quot;selection&amp;quot;:[{&amp;quot;id&amp;quot;:2483,&amp;quot;type&amp;quot;:&amp;quot;text&amp;quot;,&amp;quot;selection&amp;quot;:{&amp;quot;start&amp;quot;:0,&amp;quot;end&amp;quot;:15},&amp;quot;recordId&amp;quot;:&amp;quot;ScOXdyL53oE6Iexby0Acvt4xn4d&amp;quot;}],&amp;quot;payloadMap&amp;quot;:{},&amp;quot;isCut&amp;quot;:false}&quot;&gt;&lt;/span&gt;&lt;/div&gt;&lt;/div&gt;" style="ellipse;whiteSpace=wrap;html=1;" vertex="1" parent="1">
          <mxGeometry x="-60" y="870" width="120" height="60" as="geometry" />
        </mxCell>
        <mxCell id="KBhb0Jj_dmKSlay7C9OW-187" value="" style="endArrow=none;dashed=1;html=1;dashPattern=1 3;strokeWidth=2;rounded=0;entryX=0.5;entryY=1;entryDx=0;entryDy=0;" edge="1" parent="1" target="KBhb0Jj_dmKSlay7C9OW-184">
          <mxGeometry width="50" height="50" relative="1" as="geometry">
            <mxPoint x="140" y="980" as="sourcePoint" />
            <mxPoint x="350" y="760" as="targetPoint" />
          </mxGeometry>
        </mxCell>
        <mxCell id="KBhb0Jj_dmKSlay7C9OW-188" value="&lt;div style=&quot;line-height: 150%;&quot; data-docx-has-block-data=&quot;false&quot; data-page-id=&quot;PsQEdelZuojstnxGwMRclEq5nUh&quot;&gt;&lt;div class=&quot;old-record-id-UTOEdsf3Foy1ImxKm3bcTJLcnuc&quot; style=&quot;&quot;&gt;&lt;div data-docx-has-block-data=&quot;false&quot; data-page-id=&quot;PsQEdelZuojstnxGwMRclEq5nUh&quot;&gt;&lt;div class=&quot;old-record-id-ScOXdyL53oE6Iexby0Acvt4xn4d&quot; style=&quot;&quot;&gt;&lt;b&gt;Position&lt;/b&gt;&lt;/div&gt;&lt;div class=&quot;old-record-id-ScOXdyL53oE6Iexby0Acvt4xn4d&quot; style=&quot;&quot;&gt;&lt;b&gt;3D coord(x,y,z)&lt;/b&gt;&lt;/div&gt;&lt;/div&gt;&lt;span class=&quot;lark-record-clipboard&quot; data-lark-record-format=&quot;docx/text&quot; data-lark-record-data=&quot;{&amp;quot;rootId&amp;quot;:&amp;quot;PsQEdelZuojstnxGwMRclEq5nUh&amp;quot;,&amp;quot;text&amp;quot;:{&amp;quot;initialAttributedTexts&amp;quot;:{&amp;quot;text&amp;quot;:{&amp;quot;0&amp;quot;:&amp;quot;Nearby entities&amp;quot;},&amp;quot;attribs&amp;quot;:{&amp;quot;0&amp;quot;:&amp;quot;*0*1*2+f&amp;quot;}},&amp;quot;apool&amp;quot;:{&amp;quot;numToAttrib&amp;quot;:{&amp;quot;0&amp;quot;:[&amp;quot;author&amp;quot;,&amp;quot;7103759906590752771&amp;quot;],&amp;quot;1&amp;quot;:[&amp;quot;bold&amp;quot;,&amp;quot;true&amp;quot;],&amp;quot;2&amp;quot;:[&amp;quot;textHighlightBackground&amp;quot;,&amp;quot;rgba(255,246,122,0.8)&amp;quot;]},&amp;quot;nextNum&amp;quot;:3}},&amp;quot;type&amp;quot;:&amp;quot;text&amp;quot;,&amp;quot;referenceRecordMap&amp;quot;:{},&amp;quot;extra&amp;quot;:{&amp;quot;mention_page_title&amp;quot;:{},&amp;quot;external_mention_url&amp;quot;:{}},&amp;quot;isKeepQuoteContainer&amp;quot;:false,&amp;quot;isFromCode&amp;quot;:false,&amp;quot;selection&amp;quot;:[{&amp;quot;id&amp;quot;:2483,&amp;quot;type&amp;quot;:&amp;quot;text&amp;quot;,&amp;quot;selection&amp;quot;:{&amp;quot;start&amp;quot;:0,&amp;quot;end&amp;quot;:15},&amp;quot;recordId&amp;quot;:&amp;quot;ScOXdyL53oE6Iexby0Acvt4xn4d&amp;quot;}],&amp;quot;payloadMap&amp;quot;:{},&amp;quot;isCut&amp;quot;:false}&quot;&gt;&lt;/span&gt;&lt;/div&gt;&lt;/div&gt;" style="ellipse;whiteSpace=wrap;html=1;" vertex="1" parent="1">
          <mxGeometry x="80" y="790" width="120" height="60" as="geometry" />
        </mxCell>
        <mxCell id="KBhb0Jj_dmKSlay7C9OW-189" value="&lt;font style=&quot;font-size: 16px;&quot;&gt;User Interface&lt;br&gt;ActionSpace&lt;br&gt;&lt;/font&gt;" style="rounded=0;whiteSpace=wrap;html=1;fillColor=#f8cecc;strokeColor=#b85450;" vertex="1" parent="1">
          <mxGeometry x="840" y="740" width="120" height="60" as="geometry" />
        </mxCell>
        <mxCell id="KBhb0Jj_dmKSlay7C9OW-190" value="&lt;font style=&quot;font-size: 16px;&quot;&gt;Skill Library&lt;br&gt;Space&lt;br&gt;&lt;/font&gt;" style="rounded=0;whiteSpace=wrap;html=1;fillColor=#f8cecc;strokeColor=#b85450;" vertex="1" parent="1">
          <mxGeometry x="660" y="740" width="120" height="60" as="geometry" />
        </mxCell>
        <mxCell id="KBhb0Jj_dmKSlay7C9OW-192" value="" style="endArrow=classic;html=1;rounded=0;exitX=1;exitY=0.5;exitDx=0;exitDy=0;strokeWidth=3;entryX=0;entryY=0.5;entryDx=0;entryDy=0;" edge="1" parent="1" target="KBhb0Jj_dmKSlay7C9OW-189">
          <mxGeometry width="50" height="50" relative="1" as="geometry">
            <mxPoint x="780" y="769.52" as="sourcePoint" />
            <mxPoint x="820" y="870" as="targetPoint" />
          </mxGeometry>
        </mxCell>
        <mxCell id="KBhb0Jj_dmKSlay7C9OW-193" value="&lt;div style=&quot;line-height: 150%;&quot; data-docx-has-block-data=&quot;false&quot; data-page-id=&quot;PsQEdelZuojstnxGwMRclEq5nUh&quot;&gt;&lt;div class=&quot;old-record-id-UTOEdsf3Foy1ImxKm3bcTJLcnuc&quot; style=&quot;&quot;&gt;&lt;div data-docx-has-block-data=&quot;false&quot; data-page-id=&quot;PsQEdelZuojstnxGwMRclEq5nUh&quot;&gt;&lt;div class=&quot;old-record-id-ScOXdyL53oE6Iexby0Acvt4xn4d&quot; style=&quot;&quot;&gt;&lt;b&gt;Pick&lt;/b&gt;&lt;/div&gt;&lt;/div&gt;&lt;span class=&quot;lark-record-clipboard&quot; data-lark-record-format=&quot;docx/text&quot; data-lark-record-data=&quot;{&amp;quot;rootId&amp;quot;:&amp;quot;PsQEdelZuojstnxGwMRclEq5nUh&amp;quot;,&amp;quot;text&amp;quot;:{&amp;quot;initialAttributedTexts&amp;quot;:{&amp;quot;text&amp;quot;:{&amp;quot;0&amp;quot;:&amp;quot;Nearby entities&amp;quot;},&amp;quot;attribs&amp;quot;:{&amp;quot;0&amp;quot;:&amp;quot;*0*1*2+f&amp;quot;}},&amp;quot;apool&amp;quot;:{&amp;quot;numToAttrib&amp;quot;:{&amp;quot;0&amp;quot;:[&amp;quot;author&amp;quot;,&amp;quot;7103759906590752771&amp;quot;],&amp;quot;1&amp;quot;:[&amp;quot;bold&amp;quot;,&amp;quot;true&amp;quot;],&amp;quot;2&amp;quot;:[&amp;quot;textHighlightBackground&amp;quot;,&amp;quot;rgba(255,246,122,0.8)&amp;quot;]},&amp;quot;nextNum&amp;quot;:3}},&amp;quot;type&amp;quot;:&amp;quot;text&amp;quot;,&amp;quot;referenceRecordMap&amp;quot;:{},&amp;quot;extra&amp;quot;:{&amp;quot;mention_page_title&amp;quot;:{},&amp;quot;external_mention_url&amp;quot;:{}},&amp;quot;isKeepQuoteContainer&amp;quot;:false,&amp;quot;isFromCode&amp;quot;:false,&amp;quot;selection&amp;quot;:[{&amp;quot;id&amp;quot;:2483,&amp;quot;type&amp;quot;:&amp;quot;text&amp;quot;,&amp;quot;selection&amp;quot;:{&amp;quot;start&amp;quot;:0,&amp;quot;end&amp;quot;:15},&amp;quot;recordId&amp;quot;:&amp;quot;ScOXdyL53oE6Iexby0Acvt4xn4d&amp;quot;}],&amp;quot;payloadMap&amp;quot;:{},&amp;quot;isCut&amp;quot;:false}&quot;&gt;&lt;/span&gt;&lt;/div&gt;&lt;/div&gt;" style="ellipse;whiteSpace=wrap;html=1;" vertex="1" parent="1">
          <mxGeometry x="685" y="830" width="70" height="40" as="geometry" />
        </mxCell>
        <mxCell id="KBhb0Jj_dmKSlay7C9OW-194" value="&lt;div style=&quot;line-height: 150%;&quot; data-docx-has-block-data=&quot;false&quot; data-page-id=&quot;PsQEdelZuojstnxGwMRclEq5nUh&quot;&gt;&lt;div class=&quot;old-record-id-UTOEdsf3Foy1ImxKm3bcTJLcnuc&quot; style=&quot;&quot;&gt;&lt;div data-docx-has-block-data=&quot;false&quot; data-page-id=&quot;PsQEdelZuojstnxGwMRclEq5nUh&quot;&gt;&lt;div class=&quot;old-record-id-ScOXdyL53oE6Iexby0Acvt4xn4d&quot; style=&quot;&quot;&gt;&lt;b&gt;Place&lt;/b&gt;&lt;/div&gt;&lt;/div&gt;&lt;span class=&quot;lark-record-clipboard&quot; data-lark-record-format=&quot;docx/text&quot; data-lark-record-data=&quot;{&amp;quot;rootId&amp;quot;:&amp;quot;PsQEdelZuojstnxGwMRclEq5nUh&amp;quot;,&amp;quot;text&amp;quot;:{&amp;quot;initialAttributedTexts&amp;quot;:{&amp;quot;text&amp;quot;:{&amp;quot;0&amp;quot;:&amp;quot;Nearby entities&amp;quot;},&amp;quot;attribs&amp;quot;:{&amp;quot;0&amp;quot;:&amp;quot;*0*1*2+f&amp;quot;}},&amp;quot;apool&amp;quot;:{&amp;quot;numToAttrib&amp;quot;:{&amp;quot;0&amp;quot;:[&amp;quot;author&amp;quot;,&amp;quot;7103759906590752771&amp;quot;],&amp;quot;1&amp;quot;:[&amp;quot;bold&amp;quot;,&amp;quot;true&amp;quot;],&amp;quot;2&amp;quot;:[&amp;quot;textHighlightBackground&amp;quot;,&amp;quot;rgba(255,246,122,0.8)&amp;quot;]},&amp;quot;nextNum&amp;quot;:3}},&amp;quot;type&amp;quot;:&amp;quot;text&amp;quot;,&amp;quot;referenceRecordMap&amp;quot;:{},&amp;quot;extra&amp;quot;:{&amp;quot;mention_page_title&amp;quot;:{},&amp;quot;external_mention_url&amp;quot;:{}},&amp;quot;isKeepQuoteContainer&amp;quot;:false,&amp;quot;isFromCode&amp;quot;:false,&amp;quot;selection&amp;quot;:[{&amp;quot;id&amp;quot;:2483,&amp;quot;type&amp;quot;:&amp;quot;text&amp;quot;,&amp;quot;selection&amp;quot;:{&amp;quot;start&amp;quot;:0,&amp;quot;end&amp;quot;:15},&amp;quot;recordId&amp;quot;:&amp;quot;ScOXdyL53oE6Iexby0Acvt4xn4d&amp;quot;}],&amp;quot;payloadMap&amp;quot;:{},&amp;quot;isCut&amp;quot;:false}&quot;&gt;&lt;/span&gt;&lt;/div&gt;&lt;/div&gt;" style="ellipse;whiteSpace=wrap;html=1;" vertex="1" parent="1">
          <mxGeometry x="685" y="880" width="70" height="40" as="geometry" />
        </mxCell>
        <mxCell id="KBhb0Jj_dmKSlay7C9OW-195" value="&lt;div style=&quot;line-height: 150%;&quot; data-docx-has-block-data=&quot;false&quot; data-page-id=&quot;PsQEdelZuojstnxGwMRclEq5nUh&quot;&gt;&lt;div class=&quot;old-record-id-UTOEdsf3Foy1ImxKm3bcTJLcnuc&quot; style=&quot;&quot;&gt;&lt;div data-docx-has-block-data=&quot;false&quot; data-page-id=&quot;PsQEdelZuojstnxGwMRclEq5nUh&quot;&gt;&lt;div class=&quot;old-record-id-ScOXdyL53oE6Iexby0Acvt4xn4d&quot; style=&quot;&quot;&gt;&lt;b&gt;Move&lt;/b&gt;&lt;/div&gt;&lt;/div&gt;&lt;span class=&quot;lark-record-clipboard&quot; data-lark-record-format=&quot;docx/text&quot; data-lark-record-data=&quot;{&amp;quot;rootId&amp;quot;:&amp;quot;PsQEdelZuojstnxGwMRclEq5nUh&amp;quot;,&amp;quot;text&amp;quot;:{&amp;quot;initialAttributedTexts&amp;quot;:{&amp;quot;text&amp;quot;:{&amp;quot;0&amp;quot;:&amp;quot;Nearby entities&amp;quot;},&amp;quot;attribs&amp;quot;:{&amp;quot;0&amp;quot;:&amp;quot;*0*1*2+f&amp;quot;}},&amp;quot;apool&amp;quot;:{&amp;quot;numToAttrib&amp;quot;:{&amp;quot;0&amp;quot;:[&amp;quot;author&amp;quot;,&amp;quot;7103759906590752771&amp;quot;],&amp;quot;1&amp;quot;:[&amp;quot;bold&amp;quot;,&amp;quot;true&amp;quot;],&amp;quot;2&amp;quot;:[&amp;quot;textHighlightBackground&amp;quot;,&amp;quot;rgba(255,246,122,0.8)&amp;quot;]},&amp;quot;nextNum&amp;quot;:3}},&amp;quot;type&amp;quot;:&amp;quot;text&amp;quot;,&amp;quot;referenceRecordMap&amp;quot;:{},&amp;quot;extra&amp;quot;:{&amp;quot;mention_page_title&amp;quot;:{},&amp;quot;external_mention_url&amp;quot;:{}},&amp;quot;isKeepQuoteContainer&amp;quot;:false,&amp;quot;isFromCode&amp;quot;:false,&amp;quot;selection&amp;quot;:[{&amp;quot;id&amp;quot;:2483,&amp;quot;type&amp;quot;:&amp;quot;text&amp;quot;,&amp;quot;selection&amp;quot;:{&amp;quot;start&amp;quot;:0,&amp;quot;end&amp;quot;:15},&amp;quot;recordId&amp;quot;:&amp;quot;ScOXdyL53oE6Iexby0Acvt4xn4d&amp;quot;}],&amp;quot;payloadMap&amp;quot;:{},&amp;quot;isCut&amp;quot;:false}&quot;&gt;&lt;/span&gt;&lt;/div&gt;&lt;/div&gt;" style="ellipse;whiteSpace=wrap;html=1;" vertex="1" parent="1">
          <mxGeometry x="685" y="930" width="70" height="40" as="geometry" />
        </mxCell>
        <mxCell id="KBhb0Jj_dmKSlay7C9OW-196" value="&lt;div style=&quot;line-height: 150%;&quot; data-docx-has-block-data=&quot;false&quot; data-page-id=&quot;PsQEdelZuojstnxGwMRclEq5nUh&quot;&gt;&lt;div class=&quot;old-record-id-UTOEdsf3Foy1ImxKm3bcTJLcnuc&quot; style=&quot;&quot;&gt;&lt;div data-docx-has-block-data=&quot;false&quot; data-page-id=&quot;PsQEdelZuojstnxGwMRclEq5nUh&quot;&gt;&lt;div class=&quot;old-record-id-ScOXdyL53oE6Iexby0Acvt4xn4d&quot; style=&quot;&quot;&gt;&lt;b&gt;Turn&lt;/b&gt;&lt;/div&gt;&lt;/div&gt;&lt;span class=&quot;lark-record-clipboard&quot; data-lark-record-format=&quot;docx/text&quot; data-lark-record-data=&quot;{&amp;quot;rootId&amp;quot;:&amp;quot;PsQEdelZuojstnxGwMRclEq5nUh&amp;quot;,&amp;quot;text&amp;quot;:{&amp;quot;initialAttributedTexts&amp;quot;:{&amp;quot;text&amp;quot;:{&amp;quot;0&amp;quot;:&amp;quot;Nearby entities&amp;quot;},&amp;quot;attribs&amp;quot;:{&amp;quot;0&amp;quot;:&amp;quot;*0*1*2+f&amp;quot;}},&amp;quot;apool&amp;quot;:{&amp;quot;numToAttrib&amp;quot;:{&amp;quot;0&amp;quot;:[&amp;quot;author&amp;quot;,&amp;quot;7103759906590752771&amp;quot;],&amp;quot;1&amp;quot;:[&amp;quot;bold&amp;quot;,&amp;quot;true&amp;quot;],&amp;quot;2&amp;quot;:[&amp;quot;textHighlightBackground&amp;quot;,&amp;quot;rgba(255,246,122,0.8)&amp;quot;]},&amp;quot;nextNum&amp;quot;:3}},&amp;quot;type&amp;quot;:&amp;quot;text&amp;quot;,&amp;quot;referenceRecordMap&amp;quot;:{},&amp;quot;extra&amp;quot;:{&amp;quot;mention_page_title&amp;quot;:{},&amp;quot;external_mention_url&amp;quot;:{}},&amp;quot;isKeepQuoteContainer&amp;quot;:false,&amp;quot;isFromCode&amp;quot;:false,&amp;quot;selection&amp;quot;:[{&amp;quot;id&amp;quot;:2483,&amp;quot;type&amp;quot;:&amp;quot;text&amp;quot;,&amp;quot;selection&amp;quot;:{&amp;quot;start&amp;quot;:0,&amp;quot;end&amp;quot;:15},&amp;quot;recordId&amp;quot;:&amp;quot;ScOXdyL53oE6Iexby0Acvt4xn4d&amp;quot;}],&amp;quot;payloadMap&amp;quot;:{},&amp;quot;isCut&amp;quot;:false}&quot;&gt;&lt;/span&gt;&lt;/div&gt;&lt;/div&gt;" style="ellipse;whiteSpace=wrap;html=1;" vertex="1" parent="1">
          <mxGeometry x="685" y="980" width="70" height="40" as="geometry" />
        </mxCell>
        <mxCell id="KBhb0Jj_dmKSlay7C9OW-197" value="&lt;font style=&quot;font-size: 14px;&quot;&gt;Chain-Of-Thought&lt;/font&gt;" style="rounded=0;whiteSpace=wrap;html=1;fillColor=#ffe6cc;strokeColor=#d79b00;" vertex="1" parent="1">
          <mxGeometry x="353" y="960" width="127" height="60" as="geometry" />
        </mxCell>
        <mxCell id="KBhb0Jj_dmKSlay7C9OW-198" value="&lt;font style=&quot;font-size: 15px;&quot;&gt;Vision-Language Model&lt;br&gt;结果解读&lt;br&gt;&lt;/font&gt;" style="rounded=0;whiteSpace=wrap;html=1;fillColor=#ffe6cc;strokeColor=#d79b00;" vertex="1" parent="1">
          <mxGeometry x="353" y="860" width="127" height="80" as="geometry" />
        </mxCell>
        <mxCell id="KBhb0Jj_dmKSlay7C9OW-200" value="&lt;font style=&quot;font-size: 16px;&quot;&gt;Robotics 7D&lt;br&gt;ActionSpace&lt;br&gt;&lt;/font&gt;" style="rounded=0;whiteSpace=wrap;html=1;fillColor=#f8cecc;strokeColor=#b85450;" vertex="1" parent="1">
          <mxGeometry x="1005" y="740" width="120" height="60" as="geometry" />
        </mxCell>
        <mxCell id="KBhb0Jj_dmKSlay7C9OW-201" value="&lt;p style=&quot;line-height: 150%;&quot;&gt;&lt;span style=&quot;font-size: 14px;&quot;&gt;与机械臂、轮子操控相关&lt;/span&gt;&lt;br&gt;&lt;font style=&quot;font-size: 11px;&quot;&gt;(x, y, z, roll, yaw, pitch,&amp;nbsp;gripper)&lt;/font&gt;&lt;br&gt;&lt;/p&gt;" style="rounded=0;whiteSpace=wrap;html=1;" vertex="1" parent="1">
          <mxGeometry x="980" y="820" width="170" height="60" as="geometry" />
        </mxCell>
        <mxCell id="KBhb0Jj_dmKSlay7C9OW-202" value="2D&lt;br&gt;Image Caption&lt;br&gt;Segmentation" style="shape=cube;whiteSpace=wrap;html=1;boundedLbl=1;backgroundOutline=1;darkOpacity=0.05;darkOpacity2=0.1;size=10;" vertex="1" parent="1">
          <mxGeometry x="-60" y="980" width="120" height="80" as="geometry" />
        </mxCell>
        <mxCell id="KBhb0Jj_dmKSlay7C9OW-203" value="" style="endArrow=none;dashed=1;html=1;dashPattern=1 3;strokeWidth=2;rounded=0;exitX=0;exitY=0;exitDx=55;exitDy=0;exitPerimeter=0;edgeStyle=orthogonalEdgeStyle;entryX=0.5;entryY=1;entryDx=0;entryDy=0;" edge="1" parent="1" source="KBhb0Jj_dmKSlay7C9OW-202" target="KBhb0Jj_dmKSlay7C9OW-184">
          <mxGeometry width="50" height="50" relative="1" as="geometry">
            <mxPoint x="150" y="990" as="sourcePoint" />
            <mxPoint x="150" y="940" as="targetPoint" />
          </mxGeometry>
        </mxCell>
        <mxCell id="KBhb0Jj_dmKSlay7C9OW-204" value="" style="endArrow=classic;html=1;rounded=0;exitX=1.006;exitY=0.409;exitDx=0;exitDy=0;exitPerimeter=0;entryX=0;entryY=0.5;entryDx=0;entryDy=0;" edge="1" parent="1" source="KBhb0Jj_dmKSlay7C9OW-199" target="KBhb0Jj_dmKSlay7C9OW-198">
          <mxGeometry width="50" height="50" relative="1" as="geometry">
            <mxPoint x="490" y="840" as="sourcePoint" />
            <mxPoint x="540" y="790" as="targetPoint" />
          </mxGeometry>
        </mxCell>
        <mxCell id="KBhb0Jj_dmKSlay7C9OW-206" value="&lt;font size=&quot;1&quot; style=&quot;&quot;&gt;&lt;b style=&quot;font-size: 16px;&quot;&gt;General Manager&lt;/b&gt;&lt;/font&gt;" style="rounded=0;whiteSpace=wrap;html=1;fillColor=#e1d5e7;strokeColor=#9673a6;" vertex="1" parent="1">
          <mxGeometry x="10" y="500" width="770" height="60" as="geometry" />
        </mxCell>
      </root>
    </mxGraphModel>
  </diagram>
</mxfile>
